<mxfile host="app.diagrams.net" agent="Mozilla/5.0 (X11; Linux x86_64) AppleWebKit/537.36 (KHTML, like Gecko) Chrome/128.0.0.0 Safari/537.36" version="24.8.0">
  <diagram name="Page-1" id="nXVdqhDfSdQrGmsWPocL">
    <mxGraphModel dx="1050" dy="610" grid="1" gridSize="10" guides="1" tooltips="1" connect="1" arrows="1" fold="1" page="1" pageScale="1" pageWidth="827" pageHeight="1169" math="0" shadow="0">
      <root>
        <mxCell id="0" />
        <mxCell id="1" parent="0" />
        <mxCell id="__L3B_ZFIOOR9D2NFa_H-1" value="State Machine" style="swimlane;horizontal=0;whiteSpace=wrap;html=1;fillColor=#f8cecc;strokeColor=#b85450;" vertex="1" parent="1">
          <mxGeometry x="310" y="220" width="210" height="200" as="geometry" />
        </mxCell>
        <mxCell id="__L3B_ZFIOOR9D2NFa_H-7" value="&lt;h1 style=&quot;margin-top: 0px;&quot;&gt;Processes&lt;/h1&gt;&lt;p&gt;&lt;/p&gt;&lt;ul&gt;&lt;li&gt;Solve Eccentric anomaly numerically for true anomaly.&lt;/li&gt;&lt;li&gt;Output orbital elements at several time-steps.&lt;/li&gt;&lt;li&gt;Time interval defined by TOF.&lt;/li&gt;&lt;/ul&gt;&lt;p&gt;&lt;/p&gt;" style="text;html=1;whiteSpace=wrap;overflow=hidden;rounded=0;" vertex="1" parent="__L3B_ZFIOOR9D2NFa_H-1">
          <mxGeometry x="30" y="10" width="160" height="180" as="geometry" />
        </mxCell>
        <mxCell id="__L3B_ZFIOOR9D2NFa_H-2" value="Orbital elements" style="rounded=1;whiteSpace=wrap;html=1;fillColor=#e1d5e7;strokeColor=#9673a6;" vertex="1" parent="1">
          <mxGeometry x="160" y="240" width="120" height="60" as="geometry" />
        </mxCell>
        <mxCell id="__L3B_ZFIOOR9D2NFa_H-3" value="TOF" style="rounded=1;whiteSpace=wrap;html=1;fillColor=#d5e8d4;strokeColor=#82b366;" vertex="1" parent="1">
          <mxGeometry x="160" y="340" width="120" height="60" as="geometry" />
        </mxCell>
        <mxCell id="__L3B_ZFIOOR9D2NFa_H-4" value="" style="endArrow=classic;html=1;rounded=0;exitX=0.5;exitY=1;exitDx=0;exitDy=0;entryX=0.5;entryY=0;entryDx=0;entryDy=0;" edge="1" parent="1" source="__L3B_ZFIOOR9D2NFa_H-2" target="__L3B_ZFIOOR9D2NFa_H-3">
          <mxGeometry width="50" height="50" relative="1" as="geometry">
            <mxPoint x="460" y="340" as="sourcePoint" />
            <mxPoint x="510" y="290" as="targetPoint" />
          </mxGeometry>
        </mxCell>
        <mxCell id="__L3B_ZFIOOR9D2NFa_H-5" value="" style="endArrow=classic;html=1;rounded=0;exitX=1;exitY=0.5;exitDx=0;exitDy=0;entryX=0;entryY=0.25;entryDx=0;entryDy=0;" edge="1" parent="1" source="__L3B_ZFIOOR9D2NFa_H-2" target="__L3B_ZFIOOR9D2NFa_H-1">
          <mxGeometry width="50" height="50" relative="1" as="geometry">
            <mxPoint x="390" y="340" as="sourcePoint" />
            <mxPoint x="440" y="290" as="targetPoint" />
          </mxGeometry>
        </mxCell>
        <mxCell id="__L3B_ZFIOOR9D2NFa_H-6" value="" style="endArrow=classic;html=1;rounded=0;exitX=1;exitY=0.5;exitDx=0;exitDy=0;entryX=0;entryY=0.75;entryDx=0;entryDy=0;" edge="1" parent="1" source="__L3B_ZFIOOR9D2NFa_H-3" target="__L3B_ZFIOOR9D2NFa_H-1">
          <mxGeometry width="50" height="50" relative="1" as="geometry">
            <mxPoint x="390" y="340" as="sourcePoint" />
            <mxPoint x="440" y="290" as="targetPoint" />
          </mxGeometry>
        </mxCell>
        <mxCell id="__L3B_ZFIOOR9D2NFa_H-8" value="Array of true anomalies and times." style="rounded=0;whiteSpace=wrap;html=1;" vertex="1" parent="1">
          <mxGeometry x="550" y="290" width="130" height="60" as="geometry" />
        </mxCell>
        <mxCell id="__L3B_ZFIOOR9D2NFa_H-9" value="" style="endArrow=classic;html=1;rounded=0;entryX=0;entryY=0.5;entryDx=0;entryDy=0;" edge="1" parent="1" target="__L3B_ZFIOOR9D2NFa_H-8">
          <mxGeometry width="50" height="50" relative="1" as="geometry">
            <mxPoint x="520" y="320" as="sourcePoint" />
            <mxPoint x="320" y="280" as="targetPoint" />
          </mxGeometry>
        </mxCell>
      </root>
    </mxGraphModel>
  </diagram>
</mxfile>
